<svg xmlns="http://www.w3.org/2000/svg" width="1200" height="900" viewBox="0 0 1200 900" role="img" aria-labelledby="title desc">
  <title id="title">경상국립대학교 진주 가좌캠퍼스 경계</title>
  <desc id="desc">OpenStreetMap 공개 데이터에서 가져온 경상국립대학교 진주 가좌캠퍼스 외곽선</desc>
  <rect width="1200" height="900" rx="54" fill="#f5faf6"/>
  <path d="M72.0 241.9 L90.0 266.2 L110.5 300.9 L139.8 343.1 L131.5 350.1 L151.1 375.9 L136.0 446.1 L113.0 450.6 L99.9 428.9 L74.9 437.4 L101.0 478.1 L110.9 493.5 L154.9 499.7 L166.8 508.9 L218.7 516.1 L232.1 517.7 L228.5 531.3 L215.6 529.5 L211.1 549.3 L273.8 560.7 L290.9 576.7 L303.0 595.9 L298.4 622.2 L297.6 628.3 L307.1 632.9 L301.4 650.6 L322.8 669.8 L320.2 671.6 L313.4 671.0 L299.1 664.6 L293.9 669.6 L293.6 677.5 L293.6 679.0 L293.9 685.7 L297.3 693.0 L302.2 699.5 L308.5 703.8 L320.9 705.3 L345.8 705.0 L352.1 705.9 L352.9 710.3 L352.1 714.4 L357.4 716.4 L369.4 717.0 L379.2 717.6 L384.1 712.6 L384.1 706.2 L380.7 700.3 L376.6 695.1 L373.6 691.8 L364.9 693.9 L359.7 691.3 L350.3 689.5 L350.3 693.9 L346.9 700.6 L342.0 701.5 L332.6 700.0 L328.8 698.3 L318.7 699.7 L308.5 696.8 L302.9 690.4 L302.5 681.6 L312.7 678.7 L319.4 679.5 L331.8 675.7 L336.4 671.8 L365.9 675.4 L370.9 676.3 L376.6 678.8 L381.1 681.9 L384.8 685.7 L390.1 694.8 L392.0 701.8 L391.6 711.8 L389.0 718.8 L383.0 722.3 L384.1 727.6 L384.5 735.5 L390.0 741.7 L398.8 740.2 L407.5 736.4 L412.3 735.5 L410.0 741.6 L405.5 747.2 L399.1 750.4 L393.9 756.3 L403.3 766.0 L359.2 773.9 L365.9 828.0 L550.8 799.0 L598.2 770.5 L677.6 725.3 L702.0 714.3 L841.5 668.7 L858.1 658.4 L877.9 646.1 L902.4 630.9 L913.4 619.4 L924.9 607.5 L926.9 598.9 L928.7 579.3 L916.1 552.6 L919.8 543.1 L927.2 536.8 L937.1 534.3 L947.5 535.2 L961.7 538.6 L978.9 537.6 L999.7 530.0 L1008.8 521.4 L1022.6 501.8 L1046.9 466.9 L1071.7 431.5 L1084.0 406.0 L1093.5 368.9 L1057.5 364.0 L1017.7 356.3 L1000.2 351.3 L984.2 347.1 L967.8 345.4 L953.0 340.1 L834.4 271.8 L728.3 209.7 L695.3 196.2 L661.6 182.3 L613.0 172.5 L520.0 145.4 L473.6 123.2 L379.4 72.0 L344.2 103.0 L342.7 114.7 L359.3 129.3 L341.2 145.7 L352.0 159.1 L389.7 183.5 L392.7 192.6 L387.5 197.5 L386.0 205.7 L425.1 230.9 L432.6 225.6 L451.7 223.7 L473.2 245.3 L489.0 249.7 L506.6 247.3 L513.8 237.6 L521.7 224.2 L528.1 220.1 L541.2 223.3 L560.0 225.1 L570.1 230.0 L552.1 235.7 L548.3 243.0 L547.5 249.7 L555.4 255.0 L573.4 262.2 L598.8 259.6 L614.1 259.1 L634.1 284.6 L635.6 296.4 L619.0 313.6 L603.2 328.7 L595.3 335.8 L579.9 349.5 L588.6 359.1 L587.7 366.2 L591.0 376.6 L568.3 386.4 L539.7 392.5 L516.8 397.2 L507.8 403.1 L501.4 411.3 L499.5 421.8 L494.2 425.6 L456.6 419.5 L451.7 411.1 L446.7 408.6 L439.5 401.2 L435.0 395.5 L441.6 365.6 L447.6 362.4 L452.5 362.7 L460.8 355.7 L464.2 347.2 L456.6 339.8 L447.2 337.5 L392.4 331.1 L385.2 348.0 L373.9 363.5 L317.6 354.2 L321.1 341.6 L316.9 331.6 L307.1 322.5 L310.1 312.3 L311.3 295.9 L295.6 285.6 L278.1 278.1 L263.7 274.7 L255.5 275.1 L239.0 339.0 L186.4 332.5 L162.3 302.7 L148.8 273.4 L130.8 254.6 L114.2 239.4 L98.4 231.8 L87.9 217.7 L74.4 217.7 L82.6 232.4 L72.0 241.9 Z" fill="#d8ecda" fill-rule="evenodd" stroke="#4b9460" stroke-width="10" stroke-linejoin="round"/>
  <text x="600" y="836" text-anchor="middle" font-family="Pretendard, Arial, sans-serif" font-size="26" font-weight="700" fill="#496255">경상국립대학교 진주 가좌캠퍼스</text>
  <text x="1128" y="870" text-anchor="end" font-family="Arial, sans-serif" font-size="17" fill="#6b7c71">© OpenStreetMap contributors · ODbL 1.0</text>
</svg>
