<?xml version="1.0" encoding="UTF-8"?>
<svg width="96" height="72" viewBox="0 0 96 72" fill="none" xmlns="http://www.w3.org/2000/svg" role="img" aria-labelledby="career-mission-logo-title">
  <title id="career-mission-logo-title">Career Mission logo</title>
  <defs>
    <linearGradient id="cm-gradient" x1="10" y1="58" x2="84" y2="10" gradientUnits="userSpaceOnUse">
      <stop stop-color="#1D4ED8"/>
      <stop offset="0.5" stop-color="#4F46E5"/>
      <stop offset="1" stop-color="#7C3AED"/>
    </linearGradient>
  </defs>
  <path d="M55.6 59.3C50.7 61.4 45.4 62.5 39.9 62.5C18.5 62.5 7.4 48.4 7.4 35.9C7.4 14.8 20.8 5.9 39.9 5.9C47.2 5.9 54.2 7.9 60.3 11.9" stroke="url(#cm-gradient)" stroke-width="9.5" stroke-linecap="round"/>
  <path d="M24.8 52.6V22.1L40 37.1L61.2 22.4V52.6" stroke="url(#cm-gradient)" stroke-width="9.2" stroke-linejoin="round"/>
  <path d="M55.6 47.2C68.4 42.2 78.5 31.8 84.8 17.2" stroke="url(#cm-gradient)" stroke-width="6.6" stroke-linecap="round"/>
  <path d="M76.3 17.5L88.2 10.6L87.1 24.2" fill="url(#cm-gradient)"/>
  <path d="M71.4 11.7L73 16.2L77.6 17.8L73 19.4L71.4 23.9L69.8 19.4L65.2 17.8L69.8 16.2L71.4 11.7Z" fill="url(#cm-gradient)"/>
  <path d="M64 52.6H70.6V31.8H64V52.6Z" fill="url(#cm-gradient)"/>
  <path d="M75.1 52.6L82.7 31.8H88.8L96 52.6H89.6L88.5 48.9H82.6L81.5 52.6H75.1ZM84 44.1H87.1L85.6 38.9L84 44.1Z" fill="url(#cm-gradient)"/>
</svg>
